<?xml version="1.0" encoding="utf-8"?>
<!-- Generator: Adobe Illustrator 23.0.3, SVG Export Plug-In . SVG Version: 6.00 Build 0)  -->
<svg version="1.2" baseProfile="tiny" id="Layer_1" xmlns="http://www.w3.org/2000/svg" xmlns:xlink="http://www.w3.org/1999/xlink"
	 x="0px" y="0px" viewBox="0 0 30 30" xml:space="preserve">
<circle fill="#EF8989" cx="15" cy="15" r="15"/>
<path d="M18.3,7.9l-1.9,0c-2.2,0-3.6,1.4-3.6,3.7v1.7h-1.9c-0.2,0-0.3,0.1-0.3,0.3V16c0,0.2,0.1,0.3,0.3,0.3h1.9v6.2
	c0,0.2,0.1,0.3,0.3,0.3h2.5c0.2,0,0.3-0.1,0.3-0.3v-6.2h2.3c0.2,0,0.3-0.1,0.3-0.3l0-2.4c0-0.1,0-0.2-0.1-0.2
	c-0.1-0.1-0.1-0.1-0.2-0.1H16v-1.4c0-0.7,0.2-1,1.1-1h1.3c0.2,0,0.3-0.1,0.3-0.3V8.2C18.6,8,18.5,7.9,18.3,7.9"/>
</svg>
