<svg xmlns="http://www.w3.org/2000/svg" baseProfile="tiny" version="1.2" viewBox="0 0 55 38">
  <path fill="#507BFF" d="M13.2 5c1.2-1.6 3.2-5 13-4.9v5.6L19.9 5h-6.7z"/>
  <path fill="#DBE3FF" d="M9.3 17.8c0-9.2 9.4-14 16.9-13.5v27.3C16.4 31.3 9.3 27 9.3 17.8"/>
  <path fill="#507BFF" d="M17.4 17.9a8 8 0 018.8-8.1v16.3c-5.1-.2-8.8-2.7-8.8-8.2"/>
  <path fill="#DBE3FF" d="M26 0h9v38h-9z"/>
  <path fill="#353B4E" d="M10.9 12.9h10.8v13.2H10.9z"/>
  <path fill="#DBE3FF" d="M5.8 26.1h20.4v5.5H5.8z"/>
  <path fill="#EC5247" fill-rule="evenodd" d="M0 38L13.2 5h6.7l13.2 33h-7.2l-2.5-6.4h7.1l-2.2-5.5h-7l2.1 5.5H9.8L7.2 38H0zm11.8-11.9l4.6-12.7 4.9 12.7h-9.5z"/>
  <path fill="#507BFF" d="M33.1 32.6h6.3V38h-6.3z"/>
  <path fill="#507BFF" d="M55 17.2C55 8.2 47.4-.9 33.1.1v34c12.8.6 21.9-7.9 21.9-16.9"/>
  <path fill="#507BFF" d="M55 18.8C55 6.4 47.4 2.4 33.1 3.4V34c13 2.1 21.9-2.8 21.9-15.2"/>
  <path fill="#DBE3FF" d="M50 17.8c0-9.2-9.2-14.3-16.9-13.5v27.3C42.9 31.3 50 27 50 17.8"/>
  <path fill="#507BFF" d="M41.9 17.9a8 8 0 00-8.8-8.1v16.3c5.1-.2 8.8-2.7 8.8-8.2"/>
  <path fill="#DBE3FF" d="M26.2 26.1h7v5.5h-7z"/>
</svg>