<?xml version="1.0" standalone="no"?>
<!DOCTYPE svg PUBLIC "-//W3C//DTD SVG 20010904//EN"
 "http://www.w3.org/TR/2001/REC-SVG-20010904/DTD/svg10.dtd">
<svg version="1.0" xmlns="http://www.w3.org/2000/svg"
 width="880.000000pt" height="880.000000pt" viewBox="0 0 880.000000 880.000000"
 preserveAspectRatio="xMidYMid meet">
<metadata>
Created by potrace 1.11, written by Peter Selinger 2001-2013
</metadata>
<g transform="translate(0.000000,880.000000) scale(0.100000,-0.100000)"
fill="#000000" stroke="none">
<path d="M4157 7433 c-5 -4 -54 -8 -110 -9 -117 -1 -345 -13 -397 -19 -19 -3
-62 -7 -95 -10 -33 -3 -85 -10 -115 -15 -30 -5 -77 -12 -105 -16 -27 -3 -53
-8 -56 -10 -4 -2 -22 -6 -41 -9 -27 -5 -157 -38 -268 -69 -66 -19 -217 -80
-285 -117 -201 -107 -311 -195 -456 -367 -44 -51 -79 -100 -79 -108 0 -8 -4
-13 -9 -9 -5 3 -13 -5 -17 -17 -4 -13 -10 -25 -13 -28 -4 -3 -24 -50 -45 -105
-22 -55 -46 -116 -54 -135 -9 -19 -17 -39 -18 -45 -2 -5 -42 -107 -89 -225
-89 -224 -95 -239 -113 -280 -6 -14 -39 -95 -72 -180 -33 -85 -65 -164 -70
-175 -5 -11 -28 -67 -50 -125 -23 -58 -48 -120 -57 -139 -8 -18 -16 -39 -18
-45 -1 -6 -7 -22 -12 -36 -6 -14 -106 -263 -222 -555 -117 -291 -216 -539
-221 -550 -5 -11 -19 -45 -30 -75 -11 -30 -25 -64 -30 -75 -5 -11 -28 -67 -50
-125 -23 -58 -48 -118 -55 -135 -7 -16 -79 -199 -161 -405 -82 -206 -151 -377
-154 -380 -3 -3 -6 -9 -7 -15 -5 -25 -39 -110 -45 -113 -5 -2 -8 -11 -8 -20 0
-9 -6 -29 -14 -44 -8 -14 -19 -43 -26 -65 -7 -21 -16 -42 -20 -48 -4 -5 -17
-39 -30 -75 -13 -36 -26 -69 -30 -75 -4 -5 -11 -21 -15 -35 -6 -22 -16 -46
-46 -115 -4 -11 -63 -157 -130 -325 -67 -168 -126 -316 -132 -330 -5 -14 -11
-29 -13 -35 -2 -5 -19 -48 -38 -95 l-34 -85 566 -3 c312 -1 572 0 578 2 6 2
19 26 29 53 10 26 25 64 34 83 8 19 15 37 16 40 1 3 7 17 13 32 6 15 27 67 47
115 19 48 40 96 45 105 6 10 10 23 10 29 0 5 12 36 26 67 15 31 27 62 29 67 1
6 9 27 19 47 9 21 16 40 16 43 0 3 8 24 19 48 10 23 26 62 36 87 10 25 23 59
31 75 7 17 20 46 28 67 9 20 16 41 16 47 0 6 8 11 18 12 22 1 2155 1 2164 0 3
-1 12 -18 19 -39 7 -20 19 -53 27 -72 9 -19 17 -38 18 -42 1 -5 3 -10 4 -13 1
-3 3 -8 5 -12 1 -5 6 -19 12 -33 6 -14 19 -45 28 -70 9 -25 22 -56 27 -70 14
-33 16 -39 88 -225 35 -88 65 -164 68 -170 4 -5 7 -14 8 -20 2 -9 28 -79 77
-202 l21 -53 1080 0 1081 0 0 281 c0 184 3 283 10 285 5 2 65 5 132 8 68 3
133 8 145 10 26 6 116 17 168 20 19 2 44 6 55 9 11 3 36 8 55 11 19 3 46 8 60
11 14 3 36 8 50 10 14 3 52 12 85 20 33 9 69 18 81 20 34 8 205 65 274 92 73
29 272 122 280 132 3 3 21 15 40 25 186 102 412 296 551 471 79 101 143 193
155 228 3 9 10 17 13 17 10 0 154 302 152 317 0 2 8 22 18 45 17 41 74 224 85
278 25 112 43 211 52 280 3 25 7 56 9 70 20 110 29 825 12 950 -15 118 -20
147 -33 215 -8 39 -16 82 -18 96 -9 52 -73 267 -97 324 -4 11 -22 56 -40 100
-185 462 -545 900 -979 1192 -98 66 -228 145 -232 141 -2 -1 -16 6 -33 18 -57
39 -396 190 -445 197 -8 2 -19 5 -25 8 -5 4 -23 10 -40 14 -37 10 -27 7 -114
34 -41 12 -81 24 -90 26 -9 2 -59 14 -111 26 -52 12 -104 23 -115 24 -11 2
-36 6 -55 10 -19 3 -50 8 -69 11 -19 2 -47 6 -62 9 -35 6 -87 13 -169 20 -36
3 -78 8 -95 11 -52 9 -1800 16 -1808 7z"/>
</g>
</svg>
